<svg width="255" height="78" viewBox="0 0 255 78" fill="none" xmlns="http://www.w3.org/2000/svg">
<path d="M3.745 76V66.691L33.491 38.443C35.9877 36.089 37.8423 34.0203 39.055 32.237C40.2677 30.4537 41.0523 28.813 41.409 27.315C41.837 25.7457 42.051 24.2833 42.051 22.928C42.051 19.504 40.874 16.8647 38.52 15.01C36.166 13.084 32.7063 12.121 28.141 12.121C24.503 12.121 21.186 12.763 18.19 14.047C15.2653 15.331 12.733 17.2927 10.593 19.932L0.856 12.442C3.78067 8.51866 7.704 5.487 12.626 3.347C17.6193 1.13566 23.1833 0.0299959 29.318 0.0299959C34.7393 0.0299959 39.4473 0.921662 43.442 2.70499C47.508 4.417 50.611 6.878 52.751 10.088C54.9623 13.298 56.068 17.1143 56.068 21.537C56.068 23.9623 55.747 26.3877 55.105 28.813C54.463 31.167 53.2503 33.6637 51.467 36.303C49.6837 38.9423 47.08 41.9027 43.656 45.184L18.083 69.473L15.194 64.23H58.957V76H3.745ZM98.2293 77.07C92.3087 77.07 86.9587 75.572 82.1793 72.576C77.4713 69.58 73.762 65.2287 71.0513 59.522C68.3407 53.744 66.9853 46.7533 66.9853 38.55C66.9853 30.3467 68.3407 23.3917 71.0513 17.685C73.762 11.907 77.4713 7.52 82.1793 4.524C86.9587 1.528 92.3087 0.0299959 98.2293 0.0299959C104.221 0.0299959 109.571 1.528 114.279 4.524C118.987 7.52 122.697 11.907 125.407 17.685C128.189 23.3917 129.58 30.3467 129.58 38.55C129.58 46.7533 128.189 53.744 125.407 59.522C122.697 65.2287 118.987 69.58 114.279 72.576C109.571 75.572 104.221 77.07 98.2293 77.07ZM98.2293 64.979C101.725 64.979 104.756 64.0517 107.324 62.197C109.892 60.271 111.89 57.3463 113.316 53.423C114.814 49.4997 115.563 44.542 115.563 38.55C115.563 32.4867 114.814 27.529 113.316 23.677C111.89 19.7537 109.892 16.8647 107.324 15.01C104.756 13.084 101.725 12.121 98.2293 12.121C94.8767 12.121 91.8807 13.084 89.2413 15.01C86.6733 16.8647 84.6403 19.7537 83.1423 23.677C81.7157 27.529 81.0023 32.4867 81.0023 38.55C81.0023 44.542 81.7157 49.4997 83.1423 53.423C84.6403 57.3463 86.6733 60.271 89.2413 62.197C91.8807 64.0517 94.8767 64.979 98.2293 64.979ZM137.913 76V66.691L167.659 38.443C170.156 36.089 172.01 34.0203 173.223 32.237C174.436 30.4537 175.22 28.813 175.577 27.315C176.005 25.7457 176.219 24.2833 176.219 22.928C176.219 19.504 175.042 16.8647 172.688 15.01C170.334 13.084 166.874 12.121 162.309 12.121C158.671 12.121 155.354 12.763 152.358 14.047C149.433 15.331 146.901 17.2927 144.761 19.932L135.024 12.442C137.949 8.51866 141.872 5.487 146.794 3.347C151.787 1.13566 157.351 0.0299959 163.486 0.0299959C168.907 0.0299959 173.615 0.921662 177.61 2.70499C181.676 4.417 184.779 6.878 186.919 10.088C189.13 13.298 190.236 17.1143 190.236 21.537C190.236 23.9623 189.915 26.3877 189.273 28.813C188.631 31.167 187.418 33.6637 185.635 36.303C183.852 38.9423 181.248 41.9027 177.824 45.184L152.251 69.473L149.362 64.23H193.125V76H137.913ZM224.693 77.07C219.415 77.07 214.243 76.321 209.178 74.823C204.185 73.2537 199.976 71.1137 196.552 68.403L202.544 57.596C205.255 59.8073 208.536 61.5907 212.388 62.946C216.24 64.3013 220.271 64.979 224.479 64.979C229.473 64.979 233.36 63.9803 236.142 61.983C238.924 59.9143 240.315 57.1323 240.315 53.637C240.315 50.213 239.031 47.5023 236.463 45.505C233.895 43.5077 229.758 42.509 224.051 42.509H217.203V32.986L238.603 7.52L240.422 12.763H200.19V1.09999H251.229V10.409L229.829 35.875L222.553 31.595H226.726C235.928 31.595 242.812 33.6637 247.377 37.801C252.014 41.867 254.332 47.11 254.332 53.53C254.332 57.7387 253.262 61.6263 251.122 65.193C248.982 68.7597 245.701 71.6487 241.278 73.86C236.927 76 231.399 77.07 224.693 77.07Z" fill="white" fill-opacity="0.14"/>
</svg>
