<svg width="110" height="74" viewBox="0 0 110 74" fill="none" xmlns="http://www.w3.org/2000/svg">
<path d="M1.888 16V4.8H6.08C7.02933 4.8 7.84533 4.95467 8.528 5.264C9.21067 5.56267 9.73333 6 10.096 6.576C10.4693 7.14133 10.656 7.82933 10.656 8.64C10.656 9.42933 10.4693 10.112 10.096 10.688C9.73333 11.2533 9.21067 11.6907 8.528 12C7.84533 12.3093 7.02933 12.464 6.08 12.464H2.544L3.072 11.904V16H1.888ZM3.072 12L2.544 11.424H6.048C7.168 11.424 8.016 11.184 8.592 10.704C9.17867 10.2133 9.472 9.52533 9.472 8.64C9.472 7.744 9.17867 7.05067 8.592 6.56C8.016 6.06933 7.168 5.824 6.048 5.824H2.544L3.072 5.264V12ZM17.9414 16V14.144L17.8934 13.84V10.736C17.8934 10.0213 17.6907 9.472 17.2854 9.088C16.8907 8.704 16.2987 8.512 15.5094 8.512C14.9654 8.512 14.448 8.60267 13.9574 8.784C13.4667 8.96533 13.0507 9.20533 12.7094 9.504L12.1974 8.656C12.624 8.29333 13.136 8.016 13.7334 7.824C14.3307 7.62133 14.96 7.52 15.6214 7.52C16.7094 7.52 17.5467 7.792 18.1334 8.336C18.7307 8.86933 19.0294 9.68533 19.0294 10.784V16H17.9414ZM15.0454 16.08C14.416 16.08 13.8667 15.9787 13.3974 15.776C12.9387 15.5627 12.5867 15.2747 12.3414 14.912C12.096 14.5387 11.9734 14.112 11.9734 13.632C11.9734 13.1947 12.0747 12.8 12.2774 12.448C12.4907 12.0853 12.832 11.7973 13.3014 11.584C13.7814 11.36 14.4214 11.248 15.2214 11.248H18.1174V12.096H15.2534C14.4427 12.096 13.8774 12.24 13.5574 12.528C13.248 12.816 13.0934 13.1733 13.0934 13.6C13.0934 14.08 13.28 14.464 13.6534 14.752C14.0267 15.04 14.5494 15.184 15.2214 15.184C15.8614 15.184 16.4107 15.04 16.8694 14.752C17.3387 14.4533 17.68 14.0267 17.8934 13.472L18.1494 14.256C17.936 14.8107 17.5627 15.2533 17.0294 15.584C16.5067 15.9147 15.8454 16.08 15.0454 16.08ZM24.1376 16.096C24.831 16.096 25.455 15.9893 26.0096 15.776C26.575 15.5627 27.023 15.2693 27.3536 14.896C27.6843 14.512 27.8496 14.0693 27.8496 13.568C27.8496 12.928 27.5776 12.4213 27.0336 12.048C26.5003 11.6747 25.7536 11.488 24.7936 11.488L24.7456 11.792C25.2896 11.792 25.775 11.7067 26.2016 11.536C26.6283 11.3653 26.9696 11.1253 27.2256 10.816C27.4816 10.5067 27.6096 10.144 27.6096 9.728C27.6096 9.25867 27.4496 8.85867 27.1296 8.528C26.8096 8.18667 26.3776 7.92533 25.8336 7.744C25.3003 7.56267 24.6976 7.48267 24.0256 7.504C23.535 7.504 23.0443 7.57333 22.5536 7.712C22.0736 7.84 21.5883 8.032 21.0976 8.288L21.4176 9.168C21.855 8.944 22.2976 8.77867 22.7456 8.672C23.1936 8.55467 23.6256 8.49067 24.0416 8.48C24.5003 8.48 24.911 8.53333 25.2736 8.64C25.6363 8.74667 25.919 8.90667 26.1216 9.12C26.335 9.33333 26.4416 9.58933 26.4416 9.888C26.4416 10.1653 26.351 10.4053 26.1696 10.608C25.999 10.8107 25.7536 10.9653 25.4336 11.072C25.1136 11.1787 24.7456 11.232 24.3296 11.232H22.9696V12.064H24.4096C25.1136 12.064 25.6683 12.192 26.0736 12.448C26.479 12.6933 26.6816 13.04 26.6816 13.488C26.6816 13.7973 26.575 14.0747 26.3616 14.32C26.1483 14.5653 25.8496 14.7573 25.4656 14.896C25.0816 15.0347 24.6283 15.1093 24.1056 15.12C23.583 15.12 23.055 15.0453 22.5216 14.896C21.9883 14.736 21.519 14.5067 21.1136 14.208L20.7456 15.056C21.2043 15.408 21.7323 15.6693 22.3296 15.84C22.927 16.0107 23.5296 16.096 24.1376 16.096ZM34.7645 16.08C34.0392 16.08 33.3832 15.9147 32.7965 15.584C32.2098 15.2427 31.7405 14.7573 31.3885 14.128C31.0472 13.488 30.8765 12.7093 30.8765 11.792C30.8765 10.8747 31.0472 10.1013 31.3885 9.472C31.7298 8.832 32.1938 8.34667 32.7805 8.016C33.3672 7.68533 34.0285 7.52 34.7645 7.52C35.5645 7.52 36.2792 7.70133 36.9085 8.064C37.5485 8.416 38.0498 8.91733 38.4125 9.568C38.7752 10.208 38.9565 10.9493 38.9565 11.792C38.9565 12.6453 38.7752 13.392 38.4125 14.032C38.0498 14.672 37.5485 15.1733 36.9085 15.536C36.2792 15.8987 35.5645 16.08 34.7645 16.08ZM30.4285 19.104V7.6H31.5165V10.128L31.4045 11.808L31.5645 13.504V19.104H30.4285ZM34.6845 15.072C35.2818 15.072 35.8152 14.9387 36.2845 14.672C36.7538 14.3947 37.1272 14.0107 37.4045 13.52C37.6818 13.0187 37.8205 12.4427 37.8205 11.792C37.8205 11.1413 37.6818 10.5707 37.4045 10.08C37.1272 9.58933 36.7538 9.20533 36.2845 8.928C35.8152 8.65067 35.2818 8.512 34.6845 8.512C34.0872 8.512 33.5485 8.65067 33.0685 8.928C32.5992 9.20533 32.2258 9.58933 31.9485 10.08C31.6818 10.5707 31.5485 11.1413 31.5485 11.792C31.5485 12.4427 31.6818 13.0187 31.9485 13.52C32.2258 14.0107 32.5992 14.3947 33.0685 14.672C33.5485 14.9387 34.0872 15.072 34.6845 15.072ZM46.5664 16V14.144L46.5184 13.84V10.736C46.5184 10.0213 46.3157 9.472 45.9104 9.088C45.5157 8.704 44.9237 8.512 44.1344 8.512C43.5904 8.512 43.073 8.60267 42.5824 8.784C42.0917 8.96533 41.6757 9.20533 41.3344 9.504L40.8224 8.656C41.249 8.29333 41.761 8.016 42.3584 7.824C42.9557 7.62133 43.585 7.52 44.2464 7.52C45.3344 7.52 46.1717 7.792 46.7584 8.336C47.3557 8.86933 47.6544 9.68533 47.6544 10.784V16H46.5664ZM43.6704 16.08C43.041 16.08 42.4917 15.9787 42.0224 15.776C41.5637 15.5627 41.2117 15.2747 40.9664 14.912C40.721 14.5387 40.5984 14.112 40.5984 13.632C40.5984 13.1947 40.6997 12.8 40.9024 12.448C41.1157 12.0853 41.457 11.7973 41.9264 11.584C42.4064 11.36 43.0464 11.248 43.8464 11.248H46.7424V12.096H43.8784C43.0677 12.096 42.5024 12.24 42.1824 12.528C41.873 12.816 41.7184 13.1733 41.7184 13.6C41.7184 14.08 41.905 14.464 42.2784 14.752C42.6517 15.04 43.1744 15.184 43.8464 15.184C44.4864 15.184 45.0357 15.04 45.4944 14.752C45.9637 14.4533 46.305 14.0267 46.5184 13.472L46.7744 14.256C46.561 14.8107 46.1877 15.2533 45.6544 15.584C45.1317 15.9147 44.4704 16.08 43.6704 16.08ZM54.4545 16.096C53.7718 16.096 53.1638 15.984 52.6305 15.76C52.1078 15.536 51.6598 15.1947 51.2865 14.736C50.9132 14.2773 50.6305 13.712 50.4385 13.04C50.2465 12.3573 50.1505 11.568 50.1505 10.672C50.1505 9.872 50.2252 9.17333 50.3745 8.576C50.5238 7.968 50.7318 7.44533 50.9985 7.008C51.2652 6.57067 51.5745 6.20267 51.9265 5.904C52.2892 5.59467 52.6785 5.34933 53.0945 5.168C53.5212 4.976 53.9585 4.832 54.4065 4.736L58.1825 3.856L58.3745 4.912L54.8225 5.712C54.5985 5.76533 54.3265 5.84 54.0065 5.936C53.6972 6.032 53.3772 6.176 53.0465 6.368C52.7265 6.56 52.4278 6.82667 52.1505 7.168C51.8732 7.50933 51.6492 7.952 51.4785 8.496C51.3185 9.02933 51.2385 9.696 51.2385 10.496C51.2385 10.6667 51.2438 10.8053 51.2545 10.912C51.2652 11.008 51.2758 11.1147 51.2865 11.232C51.3078 11.3387 51.3238 11.4987 51.3345 11.712L50.8385 11.296C50.9558 10.6453 51.1958 10.08 51.5585 9.6C51.9212 9.10933 52.3745 8.73067 52.9185 8.464C53.4732 8.18667 54.0865 8.048 54.7585 8.048C55.5372 8.048 56.2305 8.21867 56.8385 8.56C57.4465 8.89067 57.9212 9.35467 58.2625 9.952C58.6145 10.5493 58.7905 11.2427 58.7905 12.032C58.7905 12.8107 58.6092 13.5093 58.2465 14.128C57.8945 14.7467 57.3932 15.232 56.7425 15.584C56.0918 15.9253 55.3292 16.096 54.4545 16.096ZM54.5825 15.152C55.1798 15.152 55.7078 15.0187 56.1665 14.752C56.6252 14.4747 56.9825 14.1013 57.2385 13.632C57.5052 13.1627 57.6385 12.6347 57.6385 12.048C57.6385 11.472 57.5052 10.96 57.2385 10.512C56.9825 10.064 56.6252 9.712 56.1665 9.456C55.7078 9.18933 55.1745 9.056 54.5665 9.056C53.9692 9.056 53.4412 9.184 52.9825 9.44C52.5238 9.68533 52.1612 10.032 51.8945 10.48C51.6385 10.928 51.5105 11.4453 51.5105 12.032C51.5105 12.6187 51.6385 13.1467 51.8945 13.616C52.1612 14.0853 52.5238 14.4587 52.9825 14.736C53.4518 15.0133 53.9852 15.152 54.5825 15.152ZM64.6814 16.08C63.8707 16.08 63.14 15.8987 62.4894 15.536C61.8494 15.1627 61.3427 14.656 60.9694 14.016C60.596 13.3653 60.4094 12.624 60.4094 11.792C60.4094 10.9493 60.596 10.208 60.9694 9.568C61.3427 8.928 61.8494 8.42667 62.4894 8.064C63.1294 7.70133 63.86 7.52 64.6814 7.52C65.5134 7.52 66.2494 7.70133 66.8894 8.064C67.54 8.42667 68.0467 8.928 68.4094 9.568C68.7827 10.208 68.9694 10.9493 68.9694 11.792C68.9694 12.624 68.7827 13.3653 68.4094 14.016C68.0467 14.656 67.54 15.1627 66.8894 15.536C66.2387 15.8987 65.5027 16.08 64.6814 16.08ZM64.6814 15.072C65.2894 15.072 65.828 14.9387 66.2974 14.672C66.7667 14.3947 67.1347 14.0107 67.4014 13.52C67.6787 13.0187 67.8174 12.4427 67.8174 11.792C67.8174 11.1307 67.6787 10.5547 67.4014 10.064C67.1347 9.57333 66.7667 9.19467 66.2974 8.928C65.828 8.65067 65.2947 8.512 64.6974 8.512C64.1 8.512 63.5667 8.65067 63.0974 8.928C62.628 9.19467 62.2547 9.57333 61.9774 10.064C61.7 10.5547 61.5614 11.1307 61.5614 11.792C61.5614 12.4427 61.7 13.0187 61.9774 13.52C62.2547 14.0107 62.628 14.3947 63.0974 14.672C63.5667 14.9387 64.0947 15.072 64.6814 15.072ZM72.6848 16V8.288L72.9728 8.592H69.5008V7.6H77.0048V8.592H73.5328L73.8208 8.288V16H72.6848ZM83.9593 12.448C83.4686 12.6613 82.9726 12.832 82.4713 12.96C81.9806 13.0773 81.4899 13.136 80.9993 13.136C80.0073 13.136 79.2233 12.912 78.6473 12.464C78.0713 12.0053 77.7833 11.3013 77.7833 10.352V7.6H78.9033V10.288C78.9033 10.928 79.1113 11.408 79.5273 11.728C79.9433 12.048 80.5033 12.208 81.2073 12.208C81.6339 12.208 82.0819 12.1547 82.5513 12.048C83.0206 11.9307 83.4953 11.7653 83.9753 11.552L83.9593 12.448ZM83.8633 16V7.6H84.9993V16H83.8633ZM88.2254 16V7.6H89.3614V14.272L94.9774 7.6H95.9854V16H94.8494V9.312L89.2494 16H88.2254ZM105.401 16L101.945 11.84L102.889 11.28L106.745 16H105.401ZM99.241 16V7.6H100.377V16H99.241ZM100.025 12.256V11.28H102.729V12.256H100.025ZM102.985 11.92L101.929 11.76L105.273 7.6H106.505L102.985 11.92Z" fill="white"/>
<path fill-rule="evenodd" clip-rule="evenodd" d="M76.6812 50.6186C76.6812 50.6186 73.16 51.9117 75.1621 53.6113C77.1643 55.3109 80.4872 50.2235 86.9097 53.9581C86.9097 53.9581 83.8939 48.3079 76.6812 50.6186Z" fill="#D507D3"/>
<path fill-rule="evenodd" clip-rule="evenodd" d="M17.1337 51.7781C17.7851 51.7153 18.4372 51.8904 18.9733 52.2721C19.5095 52.6538 19.8947 53.2171 20.0602 53.8614C20.1297 54.2138 20.1287 54.5768 20.0573 54.9288C19.9859 55.2808 19.8456 55.6145 19.6446 55.91C19.4436 56.2056 19.1862 56.4568 18.8877 56.6489C18.5892 56.8409 18.2557 56.9696 17.9072 57.0275C16.1871 57.3743 14.6765 56.1749 14.5759 54.6004C14.4782 53.1083 15.6678 51.8918 17.1337 51.7781Z" fill="#6622CC"/>
<path fill-rule="evenodd" clip-rule="evenodd" d="M0 37.8546C0.022339 43.7009 4.34773 46.6141 8.62564 46.6141C11.728 46.6141 14.9224 45.2442 16.126 41.6716C16.7012 40.009 16.7012 38.3691 16.6062 36.6581H8.65077V40.458H12.2306C11.4627 42.0951 10.3569 42.5612 8.62564 42.5612C6.079 42.5612 4.43708 40.7025 4.43708 37.8632C4.43708 35.2456 5.90308 33.0941 8.62564 33.0941C10.3346 33.0941 11.4376 33.6824 12.1357 35.1489H16.3661C15.5479 30.8858 12.0156 29.1066 8.62564 29.081C4.34773 29.0895 0.022339 32.0084 0 37.8546ZM30.113 46.4265H34.3183V45.7899L26.723 29.0895H24.8745L17.3016 45.7813V46.4265H21.5097L22.4954 44.2722H29.1412L30.113 46.4265ZM27.745 40.5234H23.8888L25.7876 36.0215L27.745 40.5234ZM38.9145 41.1828H34.7511C34.6534 48.7173 48.3527 48.5951 48.3527 41.4016C48.3527 37.1214 45.0857 36.607 41.746 36.2403C40.2297 36.0698 38.9815 35.7998 39.0765 34.5038C39.2217 32.4745 43.7397 32.2784 43.7397 34.5521H47.825C47.9227 27.1626 34.846 27.1626 34.9801 34.5521C35.0275 38.2724 37.4318 39.5429 41.0842 39.8129C42.7596 39.9095 44.1558 40.1795 44.1558 41.3789C44.1726 43.3854 38.9145 43.3598 38.9145 41.1828ZM60.695 40.8645V36.9509H55.275V33.2078H61.3792V29.2942H50.9022V46.4265H55.275V40.8645H60.695ZM80.3282 37.8802C80.3282 26.0399 63.0741 26.0399 63.0741 37.8802C63.0741 49.7205 80.3282 49.7433 80.3282 37.8802ZM67.4833 37.8802C67.4833 31.7157 75.9191 31.7157 75.9191 37.8802C75.9191 44.0931 67.4833 44.0931 67.4833 37.8802ZM93.874 40.35C98.1268 37.417 96.9261 29.3197 90.3166 29.2942H82.9391V46.4265H87.2393V41.3789H89.4733L92.3578 46.4265H97.1662V45.7899L93.874 40.35ZM90.3166 37.488H87.2449V33.2078C88.2558 33.2078 89.3113 33.185 90.3166 33.2078C92.7683 33.2333 92.6482 37.488 90.3166 37.488ZM101.637 33.2078V46.4265H105.89V33.2078H110V29.2942H97.5013V33.2078H101.637Z" fill="#FDFDFD"/>
<path fill-rule="evenodd" clip-rule="evenodd" d="M107.328 52.9125C107.328 52.9125 106.004 71.8297 78.2649 66.6059C43.6394 60.0889 48.6657 54.129 27.9183 61.3821C5.11022 69.3542 3.32031 55.3141 3.32031 55.3141C3.32031 55.3141 11.4182 63.6444 25.5895 58.2415C31.42 56.019 38.9203 49.8288 48.3278 49.9823C61.2397 50.1955 59.7263 62.3967 75.9723 62.553C85.5446 62.6468 95.921 54.3109 96.2254 54.3649C96.2673 54.3847 107.118 51.4574 107.328 52.9125Z" fill="url(#paint0_linear_11_48)"/>
<path fill-rule="evenodd" clip-rule="evenodd" d="M8.52253 65.6025C8.52253 65.6025 18.2735 72.0569 30.6325 66.0572C41.3581 60.8533 46.1498 62.1521 50.8242 63.3629C60.4216 65.8469 66.3442 75.0156 79.4433 70.6273C84.6315 68.8851 85.3966 61.1233 85.3966 61.1233C85.3966 61.1233 73.1939 51.0394 60.5445 58.8922L47.0713 57.8832L36.0107 59.9978C36.0107 59.9978 14.5373 68.3963 4.45683 55.493C4.0659 54.9928 2.93219 54.9246 2.60269 54.6063C1.6477 53.657 1.25677 52.7788 1.17579 53.2278C0.620107 56.3456 2.68926 61.9191 8.52253 65.6025Z" fill="url(#paint1_linear_11_48)"/>
<path fill-rule="evenodd" clip-rule="evenodd" d="M5.10761 60.0687C5.10761 60.0687 12.7503 67.1427 25.397 63.4252C37.5913 59.8385 41.5928 58.2014 50.2882 59.577C60.62 61.2084 64.6829 71.5139 73.1857 71.6333C80.5799 71.7413 83.537 68.7912 89.5993 61.7C93.4025 57.2521 97.3286 53.3044 105.837 53.0486C108.805 52.9577 107.191 52.2159 103.408 52.0311C98.8923 51.8123 90.9173 52.5029 83.7576 58.568C71.1584 69.2345 63.6525 49.027 34.9134 58.6732C16.1096 64.9855 9.40508 59.7503 2.19237 53.5574C0.341028 51.9714 1.65344 54.9301 1.65344 54.9301C1.65344 54.9301 3.30932 58.4714 5.10761 60.0687Z" fill="url(#paint2_linear_11_48)"/>
<path fill-rule="evenodd" clip-rule="evenodd" d="M96.3673 68.0754C97.0875 68.0472 97.792 68.294 98.3427 68.7672C98.8934 69.2404 99.2505 69.906 99.344 70.6333C99.4305 71.3533 99.2582 72.0808 98.8589 72.6815C98.4596 73.2823 97.8603 73.7157 97.1715 73.9018C96.8077 74.0005 96.4284 74.0253 96.0552 73.9747C95.682 73.9242 95.3223 73.7992 94.9966 73.6071C94.6709 73.4149 94.3855 73.1593 94.1569 72.8548C93.9283 72.5504 93.7609 72.2031 93.6643 71.8327C93.6363 71.725 93.614 71.6159 93.5973 71.5059C93.4767 70.7292 93.6639 69.9355 94.1178 69.2992C94.5718 68.6629 95.2553 68.236 96.0183 68.1124C96.1336 68.0916 96.2502 68.0793 96.3673 68.0754Z" fill="#FADD2E"/>
<path fill-rule="evenodd" clip-rule="evenodd" d="M36.3623 67.009C36.3623 67.009 33.0729 70.2206 36.6583 71.1642C40.5481 72.1902 42.6787 65.3151 54.1134 70.88C54.1134 70.8686 44.1726 60.5574 36.3623 67.009Z" fill="#781ECD"/>
<defs>
<linearGradient id="paint0_linear_11_48" x1="53.8288" y1="49.5503" x2="59.6089" y2="67.0262" gradientUnits="userSpaceOnUse">
<stop stop-color="#F9C540"/>
<stop offset="1" stop-color="#FAE925"/>
</linearGradient>
<linearGradient id="paint1_linear_11_48" x1="47.5292" y1="51.9944" x2="35.3046" y2="70.4898" gradientUnits="userSpaceOnUse">
<stop stop-color="#811CCE"/>
<stop offset="0.68" stop-color="#F500D5"/>
<stop offset="1" stop-color="#F500D5"/>
</linearGradient>
<linearGradient id="paint2_linear_11_48" x1="107.373" y1="62.1662" x2="1.24464" y2="60.3472" gradientUnits="userSpaceOnUse">
<stop stop-color="#5409EA"/>
<stop offset="0.49" stop-color="#FD00F7"/>
<stop offset="1" stop-color="#FD00F7"/>
</linearGradient>
</defs>
</svg>
